####
#
# OBJ File Generated by Meshlab
#
####
# Object yuanzhu.obj
#
# Vertices: 273
# Faces: 542
#
####
vn -2.150967 3.824694 2.179999
v 6.964722 30.000000 28.177450
vn -2.417114 3.824692 1.880591
v 5.661166 30.000000 26.710972
vn -1.545931 4.662654 1.545931
v 1.000000 30.000000 34.000000
vn -0.772793 3.824691 2.963419
v 13.714907 30.000000 32.014580
vn -1.152984 3.824693 2.837197
v 11.852756 30.000000 31.396353
vn -1.513449 3.824692 2.662429
v 10.087231 30.000000 30.540354
vn -1.848018 3.824692 2.442108
v 8.448540 30.000000 29.461231
vn 1.152985 3.824693 -2.837196
v 23.147245 30.000000 3.603647
vn 1.513449 3.824692 -2.662429
v 24.912769 30.000000 4.459646
vn 1.545931 4.662656 -1.545931
v 34.000000 30.000000 1.000000
vn 1.549006 3.824691 2.641901
v 25.086893 30.000000 30.439823
vn 1.190919 3.824692 2.821485
v 23.333000 30.000000 31.319410
vn 1.545931 4.662429 1.545931
v 34.000000 30.000000 34.000000
vn 0.812451 3.824694 2.952792
v 21.479303 30.000000 31.962543
vn 0.420084 3.824690 3.033578
v 19.557520 30.000000 32.358215
vn -2.641901 3.824692 1.549007
v 4.560176 30.000000 25.086893
vn -2.821485 3.824693 1.190918
v 3.680590 30.000000 23.333000
vn -2.952792 3.824692 0.812452
v 3.037457 30.000000 21.479303
vn 0.772793 3.824692 -2.963418
v 21.285093 30.000000 2.985419
vn 2.442108 3.824692 1.848017
v 29.461231 30.000000 26.551460
vn 2.180000 3.824694 2.150967
v 28.177450 30.000000 28.035278
vn 1.880591 3.824693 2.417114
v 26.710972 30.000000 29.338835
vn 0.108753 3.775239 3.073993
v 17.600531 30.000000 32.499664
vn -0.096868 3.791129 3.071121
v 17.500000 30.000000 32.500000
vn -0.369886 3.845235 3.035648
v 15.641821 30.000000 32.384460
vn -0.812452 3.824692 -2.952792
v 13.520697 30.000000 3.037457
vn -1.545931 4.662657 -1.545931
v 1.000000 30.000000 1.000000
vn -1.190918 3.824693 -2.821485
v 11.667000 30.000000 3.680590
vn -1.549007 3.824692 -2.641900
v 9.913107 30.000000 4.560176
vn -0.420085 3.824692 -3.033577
v 15.442481 30.000000 2.641783
vn -0.020529 3.824693 -3.062457
v 17.399469 30.000000 2.500337
vn 0.379377 3.824692 -3.038936
v 19.358179 30.000000 2.615539
vn 2.963419 3.824691 0.772792
v 32.014580 30.000000 21.285093
vn 2.837197 3.824693 1.152984
v 31.396353 30.000000 23.147245
vn 2.662429 3.824692 1.513450
v 30.540354 30.000000 24.912769
vn -3.033576 3.824692 0.420085
v 2.641783 30.000000 19.557520
vn -3.062456 3.824693 0.020529
v 2.500337 30.000000 17.600531
vn -3.038936 3.824692 -0.379378
v 2.615539 30.000000 15.641821
vn -2.963418 3.824692 -0.772793
v 2.985419 30.000000 13.714907
vn -2.837197 3.824692 -1.152985
v 3.603647 30.000000 11.852756
vn -2.662429 3.824692 -1.513449
v 4.459646 30.000000 10.087231
vn -2.442107 3.824692 -1.848018
v 5.538768 30.000000 8.448540
vn -2.179999 3.824693 -2.150967
v 6.822551 30.000000 6.964722
vn -1.880591 3.824692 -2.417113
v 8.289028 30.000000 5.661166
vn 1.848018 3.824692 -2.442107
v 26.551460 30.000000 5.538768
vn 2.150967 3.824692 -2.180000
v 28.035278 30.000000 6.822551
vn 2.417114 3.824693 -1.880591
v 29.338835 30.000000 8.289028
vn 2.641901 3.824691 -1.549006
v 30.439823 30.000000 9.913107
vn 2.821485 3.824692 -1.190919
v 31.319410 30.000000 11.667000
vn 2.952792 3.824694 -0.812450
v 31.962543 30.000000 13.520697
vn 3.033578 3.824690 -0.420084
v 32.358215 30.000000 15.442481
vn 3.062455 3.824695 -0.020530
v 32.499664 30.000000 17.399469
vn 3.038936 3.824692 0.379379
v 32.384460 30.000000 19.358179
vn 2.246308 1.351022 2.246307
v 35.000000 29.000000 35.000000
vn 1.570796 -1.570796 1.570796
v 35.000000 0.000000 35.000000
vn 2.246307 1.351022 -2.246308
v 35.000000 29.000000 0.000000
vn 1.570796 -1.570796 -1.570796
v 35.000000 0.000000 0.000000
vn -2.246308 1.351022 -2.246307
v 0.000000 29.000000 0.000000
vn -1.570796 -1.570796 -1.570796
v 0.000000 0.000000 0.000000
vn -2.246307 1.351022 2.246308
v 0.000000 29.000000 35.000000
vn -1.570796 -1.570796 1.570796
v 0.000000 0.000000 35.000000
vn 0.032110 6.149645 0.905356
v 17.500000 60.000000 26.626740
vn 0.077779 6.182380 0.783653
v 18.367552 60.000000 26.585413
vn 0.000000 6.283182 0.000000
v 17.500000 60.000000 17.500000
vn -0.360859 6.182320 0.699969
v 13.317886 60.000000 25.612169
vn -0.221867 6.182320 0.755611
v 14.928700 60.000000 26.257042
vn -0.093097 6.185308 0.771282
v 16.632448 60.000000 26.585413
vn -0.682006 6.182320 0.393756
v 9.596011 60.000000 22.063370
vn -0.595161 6.182320 0.515710
v 10.602471 60.000000 23.476744
vn -0.486807 6.182321 0.619025
v 11.858224 60.000000 24.674101
vn -0.786620 6.182320 -0.037471
v 8.383598 60.000000 17.065733
vn -0.779496 6.182320 0.112075
v 8.466158 60.000000 18.798870
vn -0.744199 6.182320 0.257570
v 8.875224 60.000000 20.485064
vn -0.641489 6.182320 -0.456802
v 10.065578 60.000000 12.205972
vn -0.716347 6.182320 -0.327145
v 9.198026 60.000000 13.708615
vn -0.765314 6.182320 -0.185663
v 8.630529 60.000000 15.348289
vn -0.292689 6.182320 -0.731102
v 14.107934 60.000000 9.027027
vn -0.425761 6.182320 -0.662497
v 12.565712 60.000000 9.822099
vn -0.543445 6.182320 -0.569948
v 11.201829 60.000000 10.894669
vn 0.149037 6.182320 -0.773281
v 19.227247 60.000000 8.538193
vn 0.000000 6.182320 -0.787512
v 17.500000 60.000000 8.373260
vn -0.149038 6.182321 -0.773280
v 15.772754 60.000000 8.538193
vn 0.543447 6.182320 -0.569950
v 23.798172 60.000000 10.894669
vn 0.425761 6.182321 -0.662497
v 22.434288 60.000000 9.822099
vn 0.292689 6.182320 -0.731102
v 20.892067 60.000000 9.027027
vn 0.765314 6.182320 -0.185663
v 26.369471 60.000000 15.348289
vn 0.716347 6.182320 -0.327144
v 25.801975 60.000000 13.708615
vn 0.641486 6.182321 -0.456801
v 24.934422 60.000000 12.205972
vn 0.744201 6.182320 0.257571
v 26.124777 60.000000 20.485064
vn 0.779496 6.182321 0.112074
v 26.533842 60.000000 18.798870
vn 0.786620 6.182320 -0.037471
v 26.616402 60.000000 17.065733
vn 0.486808 6.182320 0.619027
v 23.141777 60.000000 24.674101
vn 0.595162 6.182321 0.515711
v 24.397530 60.000000 23.476744
vn 0.682005 6.182320 0.393755
v 25.403988 60.000000 22.063370
vn 0.221868 6.182320 0.755611
v 20.071301 60.000000 26.257042
vn 0.360859 6.182320 0.699969
v 21.682114 60.000000 25.612169
vn -1.591385 1.030969 5.977666
v 14.283580 44.567982 29.454308
vn -0.830653 1.022052 6.131332
v 15.871448 44.567982 29.771862
vn -0.006353 1.050745 6.183537
v 17.487179 44.567982 29.879444
vn 0.800815 1.050745 6.131464
v 19.103130 44.567982 29.775209
vn 1.594295 1.050638 5.974497
v 20.691652 44.567982 29.460943
vn 2.360469 1.050745 5.715272
v 22.225563 44.567982 28.942022
vn 3.086267 1.050745 5.358275
v 23.678619 44.567982 28.227324
vn 3.759279 1.050660 4.909607
v 25.025957 44.567982 27.329079
vn 4.367930 1.050745 4.376911
v 26.244522 44.567982 26.262655
vn 4.901862 1.050745 3.769336
v 27.313469 44.567982 25.046299
vn 5.351924 1.050745 3.097269
v 28.214502 44.567982 23.700825
vn 5.710435 1.050623 2.372205
v 28.932209 44.567982 22.249252
vn 5.971193 1.050745 1.606550
v 29.454308 44.567982 20.716419
vn 6.129806 1.050745 0.813410
v 29.771862 44.567982 19.128553
vn 6.183559 1.050619 0.006341
v 29.879444 44.567982 17.512821
vn 6.131464 1.050745 -0.800816
v 29.775209 44.567982 15.896870
vn 5.974482 1.050745 -1.594280
v 29.460943 44.567982 14.308349
vn 5.715287 1.050624 -2.360487
v 28.942022 44.567982 12.774437
vn 5.358275 1.050745 -3.086267
v 28.227324 44.567982 11.321382
vn 4.909596 1.050745 -3.759258
v 27.329079 44.567982 9.974043
vn 4.376913 1.050638 -4.367950
v 26.262655 44.567982 8.755477
vn 3.769336 1.050745 -4.901864
v 25.046299 44.567982 7.686532
vn 3.097269 1.050745 -5.351924
v 23.700825 44.567982 6.785498
vn 2.372208 1.050660 -5.710434
v 22.249252 44.567982 6.067792
vn 1.606553 1.050745 -5.971193
v 20.716419 44.567982 5.545693
vn 0.813411 1.050745 -6.129807
v 19.128553 44.567982 5.228137
vn 0.006352 1.050745 -6.183536
v 17.512821 44.567982 5.120556
vn -0.800830 1.050623 -6.131485
v 15.896870 44.567982 5.224791
vn -1.594281 1.050745 -5.974482
v 14.308349 44.567982 5.539057
vn -2.360469 1.050745 -5.715273
v 12.774437 44.567982 6.057979
vn -3.086289 1.050620 -5.358289
v 11.321382 44.567982 6.772676
vn -3.759259 1.050745 -4.909595
v 9.974043 44.567982 7.670922
vn -4.367929 1.050745 -4.376912
v 8.755477 44.567982 8.737346
vn -4.901885 1.050624 -3.769340
v 7.686532 44.567982 9.953700
vn -5.351923 1.050745 -3.097268
v 6.785498 44.567982 11.299174
vn -5.710411 1.050745 -2.372206
v 6.067792 44.567982 12.750747
vn -5.971211 1.050637 -1.606546
v 5.545693 44.567982 14.283580
vn -6.129807 1.050745 -0.813411
v 5.228137 44.567982 15.871448
vn -6.183536 1.050745 -0.006352
v 5.120556 44.567982 17.487179
vn -6.131482 1.050660 0.800826
v 5.224791 44.567982 19.103130
vn -5.974481 1.050745 1.594281
v 5.539057 44.567982 20.691652
vn -5.715274 1.050745 2.360469
v 6.057979 44.567982 22.225563
vn -5.358275 1.050745 3.086267
v 6.772676 44.567982 23.678619
vn -4.909605 1.050623 3.759283
v 7.670922 44.567982 25.025957
vn -4.376912 1.050745 4.367928
v 8.737346 44.567982 26.244522
vn -3.769339 1.050745 4.901861
v 9.953700 44.567982 27.313469
vn -3.097269 1.050620 5.351949
v 11.299174 44.567982 28.214502
vn -2.372207 1.050745 5.710410
v 12.750747 44.567982 28.932209
vn -5.332804 1.923865 2.376526
v 8.377122 59.135971 21.874464
vn -5.675014 1.639654 1.858948
v 7.884188 59.135971 20.646265
vn -5.840479 1.683309 1.157417
v 7.555782 59.135971 19.364233
vn -5.819498 1.941018 0.255268
v 7.397525 59.135971 18.050303
vn -4.050176 1.853976 4.262516
v 10.745595 59.135971 25.032652
vn -4.522114 1.623252 3.912011
v 9.820171 59.135971 24.086582
vn -4.902068 1.740404 3.364996
v 9.026151 59.135971 23.027815
vn -5.229080 1.601503 2.972613
v 8.738029 59.135971 22.558727
vn -2.128153 1.788569 5.520488
v 14.142365 59.135971 27.044062
vn -2.662442 1.624021 5.354049
v 12.925339 59.135971 26.524151
vn -3.260921 1.753018 4.961535
v 11.786588 59.135971 25.849836
vn -3.722388 1.599218 4.725142
v 11.245807 59.135971 25.452854
vn 0.143955 1.729008 5.946335
v 18.050303 59.135971 27.602474
vn -0.396916 1.638323 5.960423
v 16.726957 59.135971 27.587877
vn -1.142629 1.759451 5.820232
v 15.416840 59.135971 27.400671
vn -1.665992 1.596874 5.780241
v 14.649585 59.135971 27.207624
vn 2.417588 1.676875 5.463481
v 21.874464 59.135971 26.622879
vn 1.915923 1.659976 5.648242
v 20.646265 59.135971 27.115812
vn 1.141086 1.759504 5.817587
v 19.364233 59.135971 27.444218
vn 0.636569 1.594468 5.982079
v 18.461725 59.135971 27.571640
vn 4.724535 1.923866 3.430079
v 25.849836 59.135971 23.213411
vn 4.447400 1.639663 3.985230
v 25.032652 59.135971 24.254406
vn 3.922595 1.683306 4.479295
v 24.086582 59.135971 25.179829
vn 3.130818 1.941016 4.912199
v 23.027815 59.135971 25.973848
vn 2.883703 1.627941 5.260865
v 22.136086 59.135971 26.492750
vn 5.716530 1.853983 1.376298
v 27.400671 59.135971 19.583160
vn 5.648957 1.623251 1.960264
v 27.044062 59.135971 20.857635
vn 5.365210 1.740402 2.562816
v 26.524151 59.135971 22.074661
vn 5.188900 1.601507 3.042202
v 26.261971 59.135971 22.558727
vn 5.844960 1.788569 -0.917205
v 27.444218 59.135971 15.635767
vn 5.967965 1.624021 -0.371284
v 27.602474 59.135971 16.949697
vn 5.927274 1.753023 0.343272
v 27.587877 59.135971 18.273043
vn 5.953284 1.599225 0.861111
v 27.514471 59.135971 18.939863
vn 5.077695 1.729017 -3.097832
v 25.973848 59.135971 11.972186
vn 5.360334 1.638328 -2.636470
v 26.622879 59.135971 13.125536
vn 5.611782 1.759451 -1.920576
v 27.115812 59.135971 14.353735
vn 5.838830 1.596877 -1.447329
v 27.332258 59.135971 15.114720
vn 3.522727 1.676863 -4.825438
v 23.213411 59.135971 9.150165
vn 3.933557 1.659980 -4.483357
v 24.254406 59.135971 9.967348
vn 4.467635 1.759509 -3.897002
v 25.179829 59.135971 10.913418
vn 4.862344 1.594476 -3.542325
v 25.741434 59.135971 11.631302
vn 0.608270 1.923871 -5.806603
v 18.273043 59.135971 7.412124
vn 1.227611 1.639660 -5.844179
v 19.583160 59.135971 7.599329
vn 1.917886 1.683310 -5.636713
v 20.857635 59.135971 7.955938
vn 2.688681 1.941020 -5.167465
v 22.074661 59.135971 8.475848
vn 3.114204 1.627935 -5.127786
v 22.969908 59.135971 8.988658
vn -1.666360 1.853975 -5.638813
v 14.353735 59.135971 7.884188
vn -1.126841 1.623252 -5.872271
v 15.635767 59.135971 7.555782
vn -0.463139 1.740404 -5.927814
v 16.949697 59.135971 7.397525
vn 0.040175 1.601508 -6.014821
v 17.500000 59.135971 7.382547
vn -3.716810 1.788570 -4.603276
v 10.913418 59.135971 9.820171
vn -3.305520 1.624022 -4.982767
v 11.972186 59.135971 9.026151
vn -2.666354 1.753016 -5.304810
v 13.125536 59.135971 8.377122
vn -2.230900 1.599217 -5.586253
v 13.739723 59.135971 8.107283
vn -5.221648 1.729019 -2.848494
v 8.475848 59.135971 12.925339
vn -4.963422 1.638319 -3.323952
v 9.150165 59.135971 11.786588
vn -4.469156 1.759450 -3.899659
v 9.967348 59.135971 10.745595
vn -4.172842 1.596875 -4.332910
v 10.518159 59.135971 10.177655
vn -5.997895 1.627938 -0.133077
v 7.394007 59.135971 17.018593
vn -5.940311 1.676870 -0.638050
v 7.412124 59.135971 16.726957
vn -5.849481 1.659978 -1.164882
v 7.599329 59.135971 15.416840
vn -5.608719 1.759508 -1.920585
v 7.955938 59.135971 14.142365
vn -5.498921 1.594473 -2.439745
v 8.296842 59.135971 13.297059
vn -1.813767 3.522192 -4.565573
v 13.804268 59.576572 8.268509
vn -0.980924 3.443213 -4.840442
v 15.618126 59.576572 7.735912
vn 0.014861 3.521143 -4.912783
v 17.500000 59.576572 7.556215
vn -2.684752 3.463189 -4.138193
v 12.123983 59.576572 9.134755
vn -3.383094 3.521042 -3.562887
v 10.638002 59.576572 10.303344
vn -4.019279 3.467345 -2.858625
v 9.400031 59.576572 11.732038
vn -4.467299 3.517642 -2.048215
v 8.454815 59.576572 13.369203
vn -4.793829 3.462679 -1.169846
v 7.836514 59.576572 15.155663
vn -4.924250 3.473985 -0.190702
v 7.567477 59.576572 17.026855
vn -4.890080 3.453069 0.683991
v 7.657428 59.576572 18.915148
vn -4.653668 3.402784 1.691364
v 8.103114 59.576572 20.752295
vn -4.262026 3.521141 2.443521
v 8.888429 59.576572 22.471893
vn -3.701484 3.443211 3.269728
v 9.984989 59.576572 24.011795
vn -3.047019 3.522190 3.853555
v 11.353160 59.576572 25.316343
vn -2.241405 3.463188 4.394162
v 12.943494 59.576572 26.338388
vn -1.394006 3.521040 4.711287
v 14.698512 59.576572 27.040993
vn -0.466004 3.467352 4.910108
v 16.554783 59.576572 27.398760
vn 0.459842 3.517638 4.892901
v 18.445217 59.576572 27.398760
vn 1.383800 3.462672 4.736504
v 20.301489 59.576572 27.040993
vn 2.296973 3.473987 4.359876
v 22.056507 59.576572 26.338388
vn 3.037395 3.453066 3.892935
v 23.646841 59.576572 25.316343
vn 3.791600 3.402791 3.184518
v 25.015011 59.576572 24.011795
vn 4.247168 3.521140 2.469263
v 26.111570 59.576572 22.471893
vn 4.682407 3.443211 1.570716
v 26.896885 59.576572 20.752295
vn 4.860786 3.522198 0.712019
v 27.342571 59.576572 18.915148
vn 4.926160 3.463187 -0.255968
v 27.432522 59.576572 17.026855
vn 4.777092 3.521046 -1.148400
v 27.163486 59.576572 15.155663
vn 4.485282 3.467352 -2.051482
v 26.545185 59.576572 13.369203
vn 4.007458 3.517642 -2.844687
v 25.599968 59.576572 11.732038
vn 3.410032 3.462681 -3.566655
v 24.361998 59.576572 10.303344
vn 2.627279 3.473979 -4.169177
v 22.876017 59.576572 9.134755
vn 1.852685 3.453068 -4.576930
v 21.195732 59.576572 8.268509
vn 0.862071 3.402787 -4.875879
v 19.381874 59.576572 7.735912
vn -0.280546 5.340630 2.850064
v 16.588711 59.887856 27.043453
vn -0.804305 5.342666 2.739210
v 14.799068 59.887856 26.698528
vn -1.308169 5.342668 2.537493
v 13.107045 59.887856 26.021143
vn -1.764752 5.342665 2.244066
v 11.573794 59.887856 25.035784
vn -2.157555 5.342663 1.869532
v 10.254732 59.887856 23.778061
vn -2.472375 5.342666 1.427426
v 9.197533 59.887856 22.293432
vn -2.697834 5.342670 0.933729
v 8.440407 59.887856 20.635555
vn -2.825795 5.342665 0.406288
v 8.010717 59.887856 18.864353
vn -2.851617 5.342668 -0.135839
v 7.923996 59.887856 17.043839
vn -2.774376 5.342670 -0.673056
v 8.183376 59.887856 15.239812
vn -2.596866 5.342666 -1.185949
v 8.779483 59.887856 13.517473
vn -2.325494 5.342667 -1.655976
v 9.690772 59.887856 11.939074
vn -1.970073 5.342666 -2.066154
v 10.884307 59.887856 10.561661
vn -1.543449 5.342668 -2.401654
v 12.316951 59.887856 9.435018
vn -1.061041 5.342667 -2.650354
v 13.936923 59.887856 8.599864
vn -0.540284 5.342666 -2.803262
v 15.685675 59.887856 8.086384
vn 0.000000 5.342665 -2.854853
v 17.500000 59.887856 7.913137
vn 0.540284 5.342665 -2.803262
v 19.314325 59.887856 8.086384
vn 1.061043 5.342665 -2.650355
v 21.063078 59.887856 8.599864
vn 1.543450 5.342666 -2.401654
v 22.683050 59.887856 9.435018
vn 1.970072 5.342668 -2.066153
v 24.115692 59.887856 10.561661
vn 2.325496 5.342663 -1.655978
v 25.309229 59.887856 11.939074
vn 2.596869 5.342662 -1.185949
v 26.220518 59.887856 13.517473
vn 2.774374 5.342671 -0.673056
v 26.816624 59.887856 15.239812
vn 2.851619 5.342666 -0.135839
v 27.076004 59.887856 17.043839
vn 2.825797 5.342664 0.406289
v 26.989283 59.887856 18.864353
vn 2.697839 5.342667 0.933730
v 26.559593 59.887856 20.635555
vn 2.472376 5.342664 1.427426
v 25.802467 59.887856 22.293432
vn 2.157556 5.342663 1.869534
v 24.745268 59.887856 23.778061
vn 1.764751 5.342668 2.244065
v 23.426205 59.887856 25.035784
vn 1.308169 5.342667 2.537493
v 21.892956 59.887856 26.021143
vn 0.804305 5.342667 2.739210
v 20.200932 59.887856 26.698528
vn 0.271371 5.342667 2.841924
v 18.411289 59.887856 27.043453
# 273 vertices, 0 vertices normals

f 1//1 2//2 3//3
f 3//3 4//4 5//5
f 5//5 6//6 3//3
f 3//3 6//6 7//7
f 3//3 7//7 1//1
f 8//8 9//9 10//10
f 11//11 12//12 13//13
f 13//13 12//12 14//14
f 13//13 14//14 15//15
f 2//2 16//16 3//3
f 3//3 16//16 17//17
f 3//3 17//17 18//18
f 8//8 10//10 19//19
f 20//20 21//21 13//13
f 13//13 21//21 22//22
f 13//13 22//22 11//11
f 15//15 23//23 13//13
f 13//13 23//23 24//24
f 13//13 24//24 3//3
f 3//3 24//24 25//25
f 3//3 25//25 4//4
f 26//26 27//27 28//28
f 28//28 27//27 29//29
f 26//26 30//30 27//27
f 27//27 30//30 31//31
f 27//27 31//31 10//10
f 10//10 31//31 32//32
f 10//10 32//32 19//19
f 33//33 34//34 13//13
f 13//13 34//34 35//35
f 13//13 35//35 20//20
f 18//18 36//36 3//3
f 3//3 36//36 37//37
f 3//3 37//37 27//27
f 27//27 37//37 38//38
f 27//27 38//38 39//39
f 39//39 40//40 27//27
f 27//27 40//40 41//41
f 27//27 41//41 42//42
f 42//42 43//43 27//27
f 27//27 43//43 44//44
f 27//27 44//44 29//29
f 9//9 45//45 10//10
f 10//10 45//45 46//46
f 10//10 46//46 47//47
f 47//47 48//48 10//10
f 10//10 48//48 49//49
f 10//10 49//49 50//50
f 50//50 51//51 10//10
f 10//10 51//51 52//52
f 10//10 52//52 13//13
f 13//13 52//52 53//53
f 13//13 53//53 33//33
f 54//54 55//55 56//56
f 56//56 55//55 57//57
f 56//56 57//57 58//58
f 58//58 57//57 59//59
f 58//58 59//59 60//60
f 60//60 59//59 61//61
f 60//60 61//61 54//54
f 54//54 61//61 55//55
f 61//61 59//59 55//55
f 55//55 59//59 57//57
f 60//60 3//3 58//58
f 58//58 3//3 27//27
f 54//54 13//13 60//60
f 60//60 13//13 3//3
f 10//10 56//56 27//27
f 27//27 56//56 58//58
f 56//56 10//10 54//54
f 54//54 10//10 13//13
f 62//62 63//63 64//64
f 65//65 66//66 64//64
f 64//64 66//66 67//67
f 64//64 67//67 62//62
f 68//68 69//69 64//64
f 64//64 69//69 70//70
f 64//64 70//70 65//65
f 71//71 72//72 64//64
f 64//64 72//72 73//73
f 64//64 73//73 68//68
f 74//74 75//75 64//64
f 64//64 75//75 76//76
f 64//64 76//76 71//71
f 77//77 78//78 64//64
f 64//64 78//78 79//79
f 64//64 79//79 74//74
f 80//80 81//81 64//64
f 64//64 81//81 82//82
f 64//64 82//82 77//77
f 83//83 84//84 64//64
f 64//64 84//84 85//85
f 64//64 85//85 80//80
f 86//86 87//87 64//64
f 64//64 87//87 88//88
f 64//64 88//88 83//83
f 89//89 90//90 64//64
f 64//64 90//90 91//91
f 64//64 91//91 86//86
f 92//92 93//93 64//64
f 64//64 93//93 94//94
f 64//64 94//94 89//89
f 63//63 95//95 64//64
f 64//64 95//95 96//96
f 64//64 96//96 92//92
f 4//4 25//25 97//97
f 97//97 25//25 24//24
f 97//97 24//24 98//98
f 98//98 24//24 23//23
f 98//98 23//23 99//99
f 99//99 23//23 15//15
f 99//99 15//15 100//100
f 100//100 15//15 14//14
f 100//100 14//14 101//101
f 101//101 14//14 12//12
f 101//101 12//12 102//102
f 102//102 12//12 11//11
f 102//102 11//11 103//103
f 103//103 11//11 22//22
f 103//103 22//22 104//104
f 104//104 22//22 21//21
f 104//104 21//21 105//105
f 105//105 21//21 20//20
f 105//105 20//20 106//106
f 106//106 20//20 35//35
f 106//106 35//35 107//107
f 107//107 35//35 34//34
f 107//107 34//34 108//108
f 108//108 34//34 33//33
f 108//108 33//33 109//109
f 109//109 33//33 53//53
f 109//109 53//53 110//110
f 110//110 53//53 52//52
f 110//110 52//52 111//111
f 111//111 52//52 51//51
f 111//111 51//51 112//112
f 112//112 51//51 50//50
f 112//112 50//50 113//113
f 113//113 50//50 49//49
f 113//113 49//49 114//114
f 114//114 49//49 48//48
f 114//114 48//48 115//115
f 115//115 48//48 47//47
f 115//115 47//47 116//116
f 116//116 47//47 46//46
f 116//116 46//46 117//117
f 117//117 46//46 45//45
f 117//117 45//45 118//118
f 118//118 45//45 9//9
f 118//118 9//9 119//119
f 119//119 9//9 8//8
f 119//119 8//8 120//120
f 120//120 8//8 19//19
f 120//120 19//19 121//121
f 121//121 19//19 32//32
f 121//121 32//32 122//122
f 122//122 32//32 31//31
f 122//122 31//31 123//123
f 123//123 31//31 30//30
f 123//123 30//30 124//124
f 124//124 30//30 26//26
f 124//124 26//26 125//125
f 125//125 26//26 28//28
f 125//125 28//28 126//126
f 126//126 28//28 29//29
f 126//126 29//29 127//127
f 127//127 29//29 44//44
f 127//127 44//44 128//128
f 128//128 44//44 43//43
f 128//128 43//43 129//129
f 129//129 43//43 42//42
f 129//129 42//42 130//130
f 130//130 42//42 41//41
f 130//130 41//41 131//131
f 131//131 41//41 40//40
f 131//131 40//40 132//132
f 132//132 40//40 39//39
f 132//132 39//39 133//133
f 133//133 39//39 38//38
f 133//133 38//38 134//134
f 134//134 38//38 37//37
f 134//134 37//37 135//135
f 135//135 37//37 36//36
f 135//135 36//36 136//136
f 136//136 36//36 18//18
f 136//136 18//18 137//137
f 137//137 18//18 17//17
f 137//137 17//17 138//138
f 138//138 17//17 16//16
f 138//138 16//16 139//139
f 139//139 16//16 2//2
f 139//139 2//2 140//140
f 140//140 2//2 1//1
f 140//140 1//1 141//141
f 141//141 1//1 7//7
f 141//141 7//7 142//142
f 142//142 7//7 6//6
f 142//142 6//6 143//143
f 143//143 6//6 5//5
f 143//143 5//5 144//144
f 144//144 5//5 4//4
f 144//144 4//4 97//97
f 140//140 145//145 139//139
f 139//139 145//145 146//146
f 139//139 146//146 138//138
f 138//138 146//146 147//147
f 138//138 147//147 137//137
f 137//137 147//147 148//148
f 137//137 148//148 136//136
f 143//143 149//149 142//142
f 142//142 149//149 150//150
f 142//142 150//150 141//141
f 141//141 150//150 151//151
f 141//141 151//151 140//140
f 140//140 151//151 152//152
f 140//140 152//152 145//145
f 98//98 153//153 97//97
f 97//97 153//153 154//154
f 97//97 154//154 144//144
f 144//144 154//154 155//155
f 144//144 155//155 143//143
f 143//143 155//155 156//156
f 143//143 156//156 149//149
f 101//101 157//157 100//100
f 100//100 157//157 158//158
f 100//100 158//158 99//99
f 99//99 158//158 159//159
f 99//99 159//159 98//98
f 98//98 159//159 160//160
f 98//98 160//160 153//153
f 104//104 161//161 103//103
f 103//103 161//161 162//162
f 103//103 162//162 102//102
f 102//102 162//162 163//163
f 102//102 163//163 101//101
f 101//101 163//163 164//164
f 101//101 164//164 157//157
f 108//108 165//165 107//107
f 107//107 165//165 166//166
f 107//107 166//166 106//106
f 106//106 166//166 167//167
f 106//106 167//167 105//105
f 105//105 167//167 168//168
f 105//105 168//168 104//104
f 104//104 168//168 169//169
f 104//104 169//169 161//161
f 111//111 170//170 110//110
f 110//110 170//170 171//171
f 110//110 171//171 109//109
f 109//109 171//171 172//172
f 109//109 172//172 108//108
f 108//108 172//172 173//173
f 108//108 173//173 165//165
f 114//114 174//174 113//113
f 113//113 174//174 175//175
f 113//113 175//175 112//112
f 112//112 175//175 176//176
f 112//112 176//176 111//111
f 111//111 176//176 177//177
f 111//111 177//177 170//170
f 117//117 178//178 116//116
f 116//116 178//178 179//179
f 116//116 179//179 115//115
f 115//115 179//179 180//180
f 115//115 180//180 114//114
f 114//114 180//180 181//181
f 114//114 181//181 174//174
f 120//120 182//182 119//119
f 119//119 182//182 183//183
f 119//119 183//183 118//118
f 118//118 183//183 184//184
f 118//118 184//184 117//117
f 117//117 184//184 185//185
f 117//117 185//185 178//178
f 124//124 186//186 123//123
f 123//123 186//186 187//187
f 123//123 187//187 122//122
f 122//122 187//187 188//188
f 122//122 188//188 121//121
f 121//121 188//188 189//189
f 121//121 189//189 120//120
f 120//120 189//189 190//190
f 120//120 190//190 182//182
f 127//127 191//191 126//126
f 126//126 191//191 192//192
f 126//126 192//192 125//125
f 125//125 192//192 193//193
f 125//125 193//193 124//124
f 124//124 193//193 194//194
f 124//124 194//194 186//186
f 130//130 195//195 129//129
f 129//129 195//195 196//196
f 129//129 196//196 128//128
f 128//128 196//196 197//197
f 128//128 197//197 127//127
f 127//127 197//197 198//198
f 127//127 198//198 191//191
f 133//133 199//199 132//132
f 132//132 199//199 200//200
f 132//132 200//200 131//131
f 131//131 200//200 201//201
f 131//131 201//201 130//130
f 130//130 201//201 202//202
f 130//130 202//202 195//195
f 148//148 203//203 136//136
f 136//136 203//203 204//204
f 136//136 204//204 135//135
f 135//135 204//204 205//205
f 135//135 205//205 134//134
f 134//134 205//205 206//206
f 134//134 206//206 133//133
f 133//133 206//206 207//207
f 133//133 207//207 199//199
f 191//191 208//208 192//192
f 192//192 208//208 209//209
f 192//192 209//209 193//193
f 193//193 209//209 210//210
f 193//193 210//210 194//194
f 191//191 198//198 208//208
f 208//208 198//198 197//197
f 208//208 197//197 211//211
f 211//211 197//197 196//196
f 211//211 196//196 212//212
f 212//212 196//196 195//195
f 195//195 202//202 212//212
f 212//212 202//202 201//201
f 212//212 201//201 213//213
f 213//213 201//201 200//200
f 213//213 200//200 214//214
f 214//214 200//200 199//199
f 199//199 207//207 214//214
f 214//214 207//207 206//206
f 214//214 206//206 215//215
f 215//215 206//206 205//205
f 215//215 205//205 216//216
f 205//205 204//204 216//216
f 216//216 204//204 203//203
f 216//216 203//203 217//217
f 203//203 148//148 217//217
f 217//217 148//148 147//147
f 217//217 147//147 218//218
f 218//218 147//147 146//146
f 218//218 146//146 219//219
f 219//219 146//146 145//145
f 145//145 152//152 219//219
f 219//219 152//152 151//151
f 219//219 151//151 220//220
f 220//220 151//151 150//150
f 220//220 150//150 221//221
f 221//221 150//150 149//149
f 149//149 156//156 221//221
f 221//221 156//156 155//155
f 221//221 155//155 222//222
f 222//222 155//155 154//154
f 222//222 154//154 223//223
f 223//223 154//154 153//153
f 153//153 160//160 223//223
f 223//223 160//160 159//159
f 223//223 159//159 224//224
f 158//158 157//157 225//225
f 157//157 164//164 225//225
f 225//225 164//164 163//163
f 225//225 163//163 226//226
f 226//226 163//163 162//162
f 226//226 162//162 227//227
f 162//162 161//161 227//227
f 227//227 161//161 169//169
f 227//227 169//169 228//228
f 169//169 168//168 228//228
f 228//228 168//168 167//167
f 228//228 167//167 229//229
f 229//229 167//167 166//166
f 229//229 166//166 230//230
f 230//230 166//166 165//165
f 165//165 173//173 230//230
f 230//230 173//173 172//172
f 230//230 172//172 231//231
f 231//231 172//172 171//171
f 231//231 171//171 232//232
f 232//232 171//171 170//170
f 170//170 177//177 232//232
f 232//232 177//177 176//176
f 232//232 176//176 233//233
f 233//233 176//176 175//175
f 233//233 175//175 234//234
f 234//234 175//175 174//174
f 174//174 181//181 234//234
f 234//234 181//181 180//180
f 234//234 180//180 235//235
f 235//235 180//180 179//179
f 235//235 179//179 236//236
f 236//236 179//179 178//178
f 178//178 185//185 236//236
f 236//236 185//185 184//184
f 236//236 184//184 237//237
f 237//237 184//184 183//183
f 237//237 183//183 238//238
f 183//183 182//182 238//238
f 238//238 182//182 190//190
f 238//238 190//190 239//239
f 190//190 189//189 239//239
f 239//239 189//189 188//188
f 239//239 188//188 240//240
f 240//240 188//188 187//187
f 240//240 187//187 210//210
f 210//210 187//187 186//186
f 210//210 186//186 194//194
f 224//224 241//241 242//242
f 224//224 242//242 223//223
f 223//223 242//242 243//243
f 223//223 243//243 222//222
f 222//222 243//243 244//244
f 222//222 244//244 221//221
f 221//221 244//244 245//245
f 221//221 245//245 220//220
f 220//220 245//245 246//246
f 220//220 246//246 219//219
f 219//219 246//246 247//247
f 219//219 247//247 218//218
f 218//218 247//247 248//248
f 218//218 248//248 217//217
f 217//217 248//248 249//249
f 217//217 249//249 216//216
f 216//216 249//249 250//250
f 216//216 250//250 215//215
f 215//215 250//250 251//251
f 215//215 251//251 214//214
f 214//214 251//251 252//252
f 214//214 252//252 213//213
f 213//213 252//252 253//253
f 213//213 253//253 212//212
f 212//212 253//253 254//254
f 212//212 254//254 211//211
f 211//211 254//254 255//255
f 211//211 255//255 208//208
f 208//208 255//255 256//256
f 208//208 256//256 209//209
f 209//209 256//256 257//257
f 209//209 257//257 210//210
f 210//210 257//257 258//258
f 210//210 258//258 240//240
f 240//240 258//258 259//259
f 240//240 259//259 239//239
f 239//239 259//259 260//260
f 239//239 260//260 238//238
f 238//238 260//260 261//261
f 238//238 261//261 237//237
f 237//237 261//261 262//262
f 237//237 262//262 236//236
f 236//236 262//262 263//263
f 236//236 263//263 235//235
f 235//235 263//263 264//264
f 235//235 264//264 234//234
f 234//234 264//264 265//265
f 234//234 265//265 233//233
f 233//233 265//265 266//266
f 233//233 266//266 232//232
f 232//232 266//266 267//267
f 232//232 267//267 231//231
f 231//231 267//267 268//268
f 231//231 268//268 230//230
f 230//230 268//268 269//269
f 230//230 269//269 229//229
f 229//229 269//269 270//270
f 229//229 270//270 228//228
f 228//228 270//270 271//271
f 228//228 271//271 227//227
f 227//227 271//271 272//272
f 227//227 272//272 226//226
f 226//226 272//272 273//273
f 226//226 273//273 225//225
f 63//63 62//62 241//241
f 62//62 67//67 241//241
f 241//241 67//67 66//66
f 241//241 66//66 242//242
f 242//242 66//66 65//65
f 242//242 65//65 243//243
f 243//243 65//65 70//70
f 243//243 70//70 244//244
f 244//244 70//70 69//69
f 244//244 69//69 245//245
f 245//245 69//69 68//68
f 245//245 68//68 246//246
f 246//246 68//68 73//73
f 246//246 73//73 247//247
f 247//247 73//73 72//72
f 247//247 72//72 248//248
f 248//248 72//72 71//71
f 248//248 71//71 249//249
f 249//249 71//71 76//76
f 249//249 76//76 250//250
f 250//250 76//76 75//75
f 250//250 75//75 251//251
f 251//251 75//75 74//74
f 251//251 74//74 252//252
f 252//252 74//74 79//79
f 252//252 79//79 253//253
f 253//253 79//79 78//78
f 253//253 78//78 254//254
f 254//254 78//78 77//77
f 254//254 77//77 255//255
f 255//255 77//77 82//82
f 255//255 82//82 256//256
f 256//256 82//82 81//81
f 256//256 81//81 257//257
f 257//257 81//81 80//80
f 257//257 80//80 258//258
f 258//258 80//80 85//85
f 258//258 85//85 259//259
f 259//259 85//85 84//84
f 259//259 84//84 260//260
f 260//260 84//84 83//83
f 260//260 83//83 261//261
f 261//261 83//83 88//88
f 261//261 88//88 262//262
f 262//262 88//88 87//87
f 262//262 87//87 263//263
f 263//263 87//87 86//86
f 263//263 86//86 264//264
f 264//264 86//86 91//91
f 264//264 91//91 265//265
f 265//265 91//91 90//90
f 265//265 90//90 266//266
f 266//266 90//90 89//89
f 266//266 89//89 267//267
f 267//267 89//89 94//94
f 267//267 94//94 268//268
f 268//268 94//94 93//93
f 268//268 93//93 269//269
f 269//269 93//93 92//92
f 269//269 92//92 270//270
f 270//270 92//92 96//96
f 270//270 96//96 271//271
f 271//271 96//96 95//95
f 271//271 95//95 272//272
f 272//272 95//95 63//63
f 272//272 63//63 273//273
f 273//273 63//63 241//241
f 273//273 241//241 225//225
f 225//225 241//241 224//224
f 225//225 224//224 158//158
f 158//158 224//224 159//159
# 542 faces, 0 coords texture

# End of File
