####
#
# OBJ File Generated by Meshlab
#
####
# Object yuanzhukong.obj
#
# Vertices: 62
# Faces: 120
#
####
vn 1.570796 1.570799 -1.570796
v 60.000000 35.000000 0.000000
vn 1.570796 1.570795 1.570796
v 60.000000 35.000000 60.000000
vn 1.570796 -1.570796 -1.570796
v 60.000000 0.000000 0.000000
vn 1.570796 -1.570796 1.570796
v 60.000000 0.000000 60.000000
vn -1.570796 1.570795 -1.570796
v 0.000000 35.000000 0.000000
vn -1.570796 -1.570796 -1.570796
v 0.000000 0.000000 0.000000
vn -1.570796 1.570796 1.570796
v 0.000000 35.000000 60.000000
vn -1.570796 -1.570796 1.570796
v 0.000000 0.000000 60.000000
vn -2.812611 3.782722 -1.213242
v 43.773243 35.000000 35.941196
vn -2.457005 3.782718 -1.829173
v 42.031845 35.000000 38.957378
vn -1.968939 3.782721 -2.346489
v 39.641815 35.000000 41.490665
vn -1.374729 3.782720 -2.737310
v 36.731987 35.000000 43.404488
vn -0.706406 3.782720 -2.980559
v 33.459236 35.000000 44.595673
vn -0.000000 3.782720 -3.063127
v 30.000000 35.000000 45.000000
vn 0.706406 3.782720 -2.980559
v 26.540762 35.000000 44.595673
vn 1.374729 3.782719 -2.737309
v 23.268011 35.000000 43.404488
vn 1.968940 3.782720 -2.346491
v 20.358185 35.000000 41.490665
vn 2.457005 3.782720 -1.829173
v 17.968151 35.000000 38.957378
vn 2.812612 3.782721 -1.213242
v 16.226757 35.000000 35.941196
vn 3.016590 3.782719 -0.531906
v 15.227883 35.000000 32.604721
vn 3.057944 3.782720 0.178105
v 15.025377 35.000000 29.127827
vn 2.934443 3.782721 0.878515
v 15.630157 35.000000 25.697950
vn 2.652745 3.782719 1.531563
v 17.009619 35.000000 22.500000
vn 2.228038 3.782721 2.102044
v 19.089394 35.000000 19.706375
vn 1.683215 3.782720 2.559204
v 21.757364 35.000000 17.467682
vn -1.047651 3.782720 2.878397
v 35.130302 35.000000 15.904610
vn -1.683216 3.782720 2.559204
v 38.242634 35.000000 17.467682
vn -2.228037 3.782720 2.102044
v 40.910603 35.000000 19.706375
vn -2.652745 3.782719 1.531564
v 42.990379 35.000000 22.500000
vn 1.047650 3.782720 2.878397
v 24.869698 35.000000 15.904610
vn 0.355607 3.782720 3.042415
v 28.258606 35.000000 15.101424
vn -0.355607 3.782720 3.042414
v 31.741392 35.000000 15.101424
vn -2.934442 3.782721 0.878514
v 44.369843 35.000000 25.697950
vn -3.057944 3.782720 0.178104
v 44.974621 35.000000 29.127827
vn -3.016592 3.782719 -0.531905
v 44.772114 35.000000 32.604721
vn -1.716424 3.325361 2.609695
v 36.044598 5.000000 20.809633
vn -3.076105 3.325355 -0.542400
v 40.832886 5.000000 31.910130
vn -3.118275 3.325358 0.181619
v 40.981388 5.000000 29.360407
vn -1.068321 3.325356 2.935186
v 33.762222 5.000000 19.663380
vn -2.505479 3.325354 -1.865260
v 38.823353 5.000000 36.568745
vn -2.868102 3.325357 -1.237180
v 40.100376 5.000000 34.356876
vn 2.705082 3.325357 1.561779
v 20.473719 5.000000 24.500000
vn 2.992337 3.325356 0.895846
v 19.462114 5.000000 26.845163
vn 3.118275 3.325357 0.181618
v 19.018610 5.000000 29.360407
vn 3.076105 3.325357 -0.542400
v 19.167114 5.000000 31.910130
vn -0.362623 3.325357 3.102439
v 31.277021 5.000000 19.074377
vn 0.362623 3.325357 3.102438
v 28.722977 5.000000 19.074377
vn 1.068320 3.325356 2.935186
v 26.237778 5.000000 19.663380
vn 2.868102 3.325356 -1.237179
v 19.899622 5.000000 34.356876
vn 2.505479 3.325356 -1.865260
v 21.176645 5.000000 36.568745
vn -2.007786 3.325358 -2.392784
v 37.070663 5.000000 38.426487
vn -2.992337 3.325356 0.895846
v 40.537884 5.000000 26.845163
vn -2.705081 3.325357 1.561779
v 39.526279 5.000000 24.500000
vn -2.271995 3.325356 2.143517
v 38.001110 5.000000 22.451342
vn 1.716424 3.325357 2.609695
v 23.955400 5.000000 20.809633
vn 2.271994 3.325356 2.143516
v 21.998888 5.000000 22.451342
vn 2.007787 3.325358 -2.392785
v 22.929335 5.000000 38.426487
vn 1.401852 3.325356 -2.791314
v 25.063208 5.000000 39.829960
vn 0.720342 3.325355 -3.039363
v 27.463224 5.000000 40.703495
vn -0.000000 3.325357 -3.123559
v 30.000000 5.000000 41.000000
vn -0.720342 3.325357 -3.039364
v 32.536774 5.000000 40.703495
vn -1.401852 3.325356 -2.791313
v 34.936790 5.000000 39.829960
# 62 vertices, 0 vertices normals

f 1//1 2//2 3//3
f 3//3 2//2 4//4
f 5//5 1//1 6//6
f 6//6 1//1 3//3
f 7//7 5//5 8//8
f 8//8 5//5 6//6
f 2//2 7//7 4//4
f 4//4 7//7 8//8
f 9//9 10//10 2//2
f 2//2 10//10 11//11
f 11//11 12//12 2//2
f 2//2 12//12 13//13
f 2//2 13//13 7//7
f 7//7 13//13 14//14
f 7//7 14//14 15//15
f 15//15 16//16 7//7
f 7//7 16//16 17//17
f 7//7 17//17 18//18
f 18//18 19//19 7//7
f 7//7 19//19 20//20
f 7//7 20//20 5//5
f 5//5 20//20 21//21
f 5//5 21//21 22//22
f 22//22 23//23 5//5
f 5//5 23//23 24//24
f 5//5 24//24 25//25
f 26//26 27//27 1//1
f 1//1 27//27 28//28
f 1//1 28//28 29//29
f 25//25 30//30 5//5
f 5//5 30//30 31//31
f 5//5 31//31 1//1
f 1//1 31//31 32//32
f 1//1 32//32 26//26
f 29//29 33//33 1//1
f 1//1 33//33 34//34
f 1//1 34//34 2//2
f 2//2 34//34 35//35
f 2//2 35//35 9//9
f 8//8 6//6 4//4
f 4//4 6//6 3//3
f 36//36 37//37 38//38
f 39//39 40//40 36//36
f 36//36 40//40 41//41
f 36//36 41//41 37//37
f 42//42 43//43 40//40
f 40//40 43//43 44//44
f 40//40 44//44 45//45
f 39//39 46//46 40//40
f 40//40 46//46 47//47
f 40//40 47//47 48//48
f 45//45 49//49 40//40
f 40//40 49//49 50//50
f 40//40 50//50 51//51
f 38//38 52//52 36//36
f 36//36 52//52 53//53
f 36//36 53//53 54//54
f 48//48 55//55 40//40
f 40//40 55//55 56//56
f 40//40 56//56 42//42
f 57//57 58//58 59//59
f 59//59 60//60 57//57
f 57//57 60//60 61//61
f 57//57 61//61 50//50
f 50//50 61//61 62//62
f 50//50 62//62 51//51
f 61//61 13//13 62//62
f 62//62 13//13 12//12
f 62//62 12//12 51//51
f 51//51 12//12 11//11
f 51//51 11//11 40//40
f 40//40 11//11 10//10
f 40//40 10//10 41//41
f 41//41 10//10 9//9
f 41//41 9//9 37//37
f 37//37 9//9 35//35
f 37//37 35//35 38//38
f 38//38 35//35 34//34
f 38//38 34//34 52//52
f 52//52 34//34 33//33
f 52//52 33//33 53//53
f 53//53 33//33 29//29
f 53//53 29//29 54//54
f 54//54 29//29 28//28
f 54//54 28//28 36//36
f 36//36 28//28 27//27
f 36//36 27//27 39//39
f 39//39 27//27 26//26
f 39//39 26//26 46//46
f 46//46 26//26 32//32
f 46//46 32//32 47//47
f 47//47 32//32 31//31
f 47//47 31//31 48//48
f 48//48 31//31 30//30
f 48//48 30//30 55//55
f 55//55 30//30 25//25
f 55//55 25//25 56//56
f 56//56 25//25 24//24
f 56//56 24//24 42//42
f 42//42 24//24 23//23
f 42//42 23//23 43//43
f 43//43 23//23 22//22
f 43//43 22//22 44//44
f 44//44 22//22 21//21
f 44//44 21//21 45//45
f 45//45 21//21 20//20
f 45//45 20//20 49//49
f 49//49 20//20 19//19
f 49//49 19//19 50//50
f 50//50 19//19 18//18
f 50//50 18//18 57//57
f 57//57 18//18 17//17
f 57//57 17//17 58//58
f 58//58 17//17 16//16
f 58//58 16//16 59//59
f 59//59 16//16 15//15
f 59//59 15//15 60//60
f 60//60 15//15 14//14
f 60//60 14//14 61//61
f 61//61 14//14 13//13
# 120 faces, 0 coords texture

# End of File
